<?xml version="1.0" encoding="utf-8"?>
<!-- Generator: Adobe Illustrator 23.0.1, SVG Export Plug-In . SVG Version: 6.00 Build 0)  -->
<svg version="1.1" id="Layer_1" xmlns="http://www.w3.org/2000/svg" xmlns:xlink="http://www.w3.org/1999/xlink" x="0px" y="0px"
	 viewBox="0 0 680 240" style="enable-background:new 0 0 680 240;" xml:space="preserve">
<style type="text/css">
	.st0{fill:#2A2F33;}
	.st1{fill:#FCFAF6;}
</style>
<g>
	<g>
		<g>
			<path class="st1" d="M165.7,103.7h-8.4v2.7c1.3,0.4,2.2,1,3,1.7c0.7,0.8,1.3,1.8,1.5,3c0.2,1.2,0.3,2.6,0.3,4.2v67.5h-21.8
				c-2,0-3.8-0.7-5.1-2.1l-6.6-6.6c-1.4-1.4-2.1-3.2-2.1-5.1v-26.2h-7.1v26.2c0,2-0.7,3.8-2.1,5.1l-6.6,6.6
				c-1.4,1.4-3.2,2.1-5.1,2.1H83.5v-67.5c0-1.6,0.1-3,0.3-4.2c0.2-1.2,0.7-2.2,1.5-3c0.7-0.7,1.7-1.3,3-1.7v-2.7H80
				c-2,0-3.6,1.6-3.6,3.6v79.1c0,2,1.6,3.6,3.6,3.6h29.9c1,0,1.9-0.4,2.5-1l10.5-10.5l10.5,10.5c0.7,0.7,1.6,1,2.5,1h29.9
				c2,0,3.6-1.6,3.6-3.6v-79.1C169.4,105.3,167.7,103.7,165.7,103.7z"/>
		</g>
		<g>
			<path class="st1" d="M146.8,158.9v-30.4c0-2-1.6-3.6-3.6-3.6h-40.8c-2,0-3.6,1.6-3.6,3.6v30.4c0,1.5-0.1,2.8-0.3,3.8
				c-0.2,1.2-0.7,2.2-1.5,3c-0.7,0.7-3,0.7-3,0.7s0,1.8,0,2.7h8.4c2,0,3.6-1.6,3.6-3.6v-33.5h33.7v33.5c0,2,1.6,3.6,3.6,3.6h8.4
				v-2.7c0,0-2.3,0-3-0.7c-0.7-0.8-1.3-1.8-1.5-3C146.9,161.7,146.8,160.4,146.8,158.9z"/>
		</g>
		<g>
			<path class="st1" d="M189.2,93.2l-61.7-41.8c-2.8-1.9-6.5-1.9-9.3,0L56.5,93.2c-2.3,1.6-3.7,4.1-3.7,6.9V190h7.1v-2.1
				c-1-0.3-1.9-0.8-2.4-1.4c-0.6-0.6-1.1-1.5-1.3-2.5c-0.1-0.8-0.2-1.7-0.3-2.7v-81.1c0-1.8,0.9-3.4,2.3-4.3L119.9,54
				c1.8-1.2,4.1-1.2,5.9,0l61.7,41.8c1.4,1,2.3,2.6,2.3,4.3v81.1c0,1.1-0.1,2-0.3,2.8c-0.2,1-0.6,1.9-1.3,2.5
				c-0.6,0.6-1.4,1.1-2.4,1.4v2.1h4h3.1v-89.9C192.9,97.3,191.5,94.7,189.2,93.2z"/>
		</g>
	</g>
	<g>
		<g>
			<g>
				<g>
					<path class="st1" d="M250.1,139.9l-13.6-46.3h8.1l9.2,33.4l9.2-33.3l8.1-0.1l9.2,33.4l9.2-33.4h8.1l-13.5,46.3h-7.7l-9.5-32.8
						l-9.5,32.8L250.1,139.9L250.1,139.9z"/>
				</g>
			</g>
			<g>
				<g>
					<path class="st1" d="M332.9,132.7v7.3H303V93.7h29.8v7.3h-22.2v11.4H329v7.3h-18.3v13.1L332.9,132.7L332.9,132.7z"/>
				</g>
			</g>
			<g>
				<g>
					<path class="st1" d="M338.1,126.3l8.1-1.2c1.3,5.5,6,8.6,11.6,8.6c5,0,9.6-2.4,9.6-6.7c0-2.6-1.6-4.3-5.1-5.3l-11.9-3.6
						c-4.1-1.2-10.3-3.6-10.3-11.9c0-8.9,7.5-13.6,16.9-13.5c9.5,0.1,16.2,5,18.2,13.5l-8.3,1.5c-1-4.9-5.3-7.6-10-7.7
						c-4.6-0.1-8.7,2.3-8.7,5.9c0,3.4,3.6,4.7,6.7,5.5l8.3,2.3c4.5,1.2,12.4,3.6,12.4,12.7c0,9.6-8.6,14.4-18.1,14.4
						C347.1,141,339.5,135.4,338.1,126.3z"/>
				</g>
			</g>
			<g>
				<g>
					<path class="st1" d="M393.4,139.9v-39h-15v-7.3h37.7v7.3h-15v39H393.4z"/>
				</g>
			</g>
			<g>
				<g>
					<path class="st1" d="M441.9,139.9l-13.6-46.3h8.1l9.2,33.4l9.2-33.3l8.1-0.1l9.2,33.4l9.2-33.4h8.1l-13.5,46.3h-7.7l-9.5-32.8
						l-9.5,32.8H441.9z"/>
				</g>
			</g>
			<g>
				<g>
					<path class="st1" d="M491,116.9c0-14.3,8.3-24.1,22.2-24.1c13.9,0,22.2,9.8,22.2,24.1S527,141,513.1,141S491,131.2,491,116.9z
						 M527.1,116.9c0-10.1-4.6-16.7-13.9-16.8c-9.3-0.1-13.9,6.7-13.9,16.8s4.6,16.7,13.9,16.8C522.4,133.8,527.1,126.9,527.1,116.9
						z"/>
				</g>
			</g>
			<g>
				<g>
					<path class="st1" d="M539.1,116.9c0-14.3,8.3-24.1,22.2-24.1c13.9,0,22.2,9.8,22.2,24.1s-8.3,24.1-22.2,24.1
						S539.1,131.2,539.1,116.9z M575.2,116.9c0-10.1-4.6-16.7-13.9-16.8c-9.3-0.1-13.9,6.7-13.9,16.8s4.6,16.7,13.9,16.8
						C570.6,133.8,575.2,126.9,575.2,116.9z"/>
				</g>
			</g>
			<g>
				<g>
					<path class="st1" d="M589.8,139.9V93.7h14.7c0.8,0,3.5,0,5.7,0.2c11,1.4,17,11.1,17,22.9s-6,21.5-17,22.9
						c-2.1,0.2-4.9,0.2-5.7,0.2L589.8,139.9L589.8,139.9z M597.7,132.7h6.9c1.3,0,3.6,0,5.1-0.4c6.6-1.2,9.4-8.2,9.4-15.5
						c0-7.5-2.9-14.3-9.4-15.5c-1.5-0.3-3.8-0.4-5.1-0.4h-6.9V132.7z"/>
				</g>
			</g>
		</g>
		<g>
			<g>
				<g>
					<path class="st1" d="M242.9,172.9c0-6.4,3.3-10.7,9.5-10.7c4.8,0,7.8,2.6,9,6.7l-2.2,0.5c-0.9-3.3-3.2-5.3-6.8-5.3
						c-4.8,0-7.2,3.6-7.3,8.7c0,5.1,2.4,8.7,7.3,8.7c3.7,0,6-2.1,6.8-5.3l2.2,0.5c-1.2,4.1-4.2,6.7-9,6.7
						C246.2,183.6,242.9,179.2,242.9,172.9z"/>
				</g>
			</g>
			<g>
				<g>
					<path class="st1" d="M269.4,175.4c0-4.9,2.8-8.1,7.3-8.1c4.6,0,7.3,3.3,7.3,8.1c0,4.9-2.7,8.1-7.3,8.1
						C272.1,183.6,269.4,180.2,269.4,175.4z M281.7,175.4c0-3.7-1.7-6.1-5.1-6.1c-3.5,0-5,2.5-5,6.1c0,3.7,1.7,6.1,5,6.1
						C280.1,181.6,281.7,179.1,281.7,175.4z"/>
				</g>
			</g>
			<g>
				<g>
					<path class="st1" d="M313.3,172.6v10.5h-2.1V173c0-2.4-1.5-3.8-3.5-3.8c-1.8,0-3.6,1.2-3.6,4v9.9h-2.1v-10c0-2.5-1.4-4-3.6-4
						c-2.2,0-3.6,1.5-3.6,4v9.9h-2.1v-15.4h1.9v1.6c0.9-1.2,2.5-2,4.3-2c2,0,3.6,0.9,4.5,2.6c0.9-1.6,2.6-2.6,4.6-2.6
						C311.3,167.4,313.3,169.4,313.3,172.6z"/>
				</g>
			</g>
			<g>
				<g>
					<path class="st1" d="M336.6,175.4c0,4.6-2.5,8.1-6.8,8.1c-2.1,0-3.7-0.9-4.8-2.2v8.7h-2.1v-22.2h1.9v2.1
						c1.2-1.6,2.9-2.6,5.1-2.6C334,167.3,336.6,170.9,336.6,175.4z M334.3,175.4c0-3.5-1.5-6.2-4.9-6.2c-3.2,0-4.8,2.6-4.8,6.2
						c0,3.6,1.5,6.2,4.8,6.2C332.7,181.6,334.3,179,334.3,175.4z"/>
				</g>
			</g>
			<g>
				<g>
					<path class="st1" d="M357.6,173.6v9.6h-1.9v-2.6c-1.2,1.9-3.3,2.9-5.9,2.9c-3.5,0-5.3-2.1-5.3-4.6c0-2.6,1.6-3.9,4-4.5
						c2.1-0.5,5-0.9,7.1-1.1c0-2.8-1.2-4.1-4.1-4.1c-2.1,0-3.6,0.9-4.2,2.9l-2-0.6c0.7-2.8,2.9-4.3,6.3-4.3c2.8,0,4.9,1.1,5.7,3.1
						C357.5,171.3,357.6,172.5,357.6,173.6z M355.3,177.8c0.2-0.8,0.2-1.8,0.2-2.5c-2,0.2-4.4,0.5-6.1,0.9c-1.3,0.4-2.6,1.2-2.6,2.8
						c0,1.3,0.9,2.8,3.4,2.8C353,181.8,354.9,180.1,355.3,177.8z"/>
				</g>
			</g>
			<g>
				<g>
					<path class="st1" d="M380.3,174.7v8.4h-2.1v-7.9c0-3.4-1.2-6-4.5-6c-2.9,0-4.6,2.1-4.6,5.6v8.2H367v-15.4h1.9v2.2
						c1.2-1.7,2.9-2.6,5.2-2.6C378.7,167.4,380.3,171.3,380.3,174.7z"/>
				</g>
			</g>
			<g>
				<g>
					<path class="st1" d="M394.8,180.5l4.6-12.7h2.2l-8.3,22.2h-2.1l2.6-6.9l-6.3-15.4h2.2L394.8,180.5z"/>
				</g>
			</g>
		</g>
		<g>
			<g>
				<g>
					<path class="st1" d="M499.1,181.6h10.2v2h-13.4l0-1.9l9.3-8.4c1.6-1.4,2-2.7,2-4.1c0-2.5-2-4.5-4.5-4.5c-2.6,0-4.6,2.1-4.5,4.5
						h-2.1c0-3.8,2.9-6.5,6.7-6.5c3.7,0,6.6,2.9,6.6,6.6c0,2.6-0.9,4-2.9,5.8L499.1,181.6z"/>
				</g>
				<g>
					<path class="st1" d="M512.8,177.3v-8c0-3.8,2.9-6.7,6.7-6.7c3.8,0,6.7,2.9,6.7,6.7v8c0,3.8-2.9,6.7-6.7,6.7
						C515.7,184.1,512.8,181.2,512.8,177.3z M524.1,177.4v-8.2c0-2.5-2.1-4.6-4.6-4.6c-2.5,0-4.6,2.1-4.6,4.6v8.2
						c0,2.5,2.1,4.6,4.6,4.6C522,182,524.1,180,524.1,177.4z"/>
				</g>
				<g>
					<path class="st1" d="M533.8,183.6v-18.2l-3.9,2.3v-2.4l3.9-2.3h2.1v20.5H533.8z"/>
				</g>
				<g>
					<path class="st1" d="M544,181.6h10.2v2h-13.4l0-1.9l9.3-8.4c1.6-1.4,2-2.7,2-4.1c0-2.5-2-4.5-4.5-4.5c-2.6,0-4.6,2.1-4.5,4.5
						h-2.1c0-3.8,2.9-6.5,6.7-6.5c3.7,0,6.6,2.9,6.6,6.6c0,2.6-0.9,4-2.9,5.8L544,181.6z"/>
				</g>
			</g>
			<g>
				<g>
					<rect x="565.3" y="175.7" class="st1" width="61.4" height="1.8"/>
				</g>
				<g>
					<rect x="422.5" y="175.7" class="st1" width="61.4" height="1.8"/>
				</g>
			</g>
		</g>
	</g>
</g>
</svg>
