<?xml version="1.0" encoding="utf-8"?>
<!-- Generator: Adobe Illustrator 23.0.1, SVG Export Plug-In . SVG Version: 6.00 Build 0)  -->
<svg version="1.1" id="Layer_1" xmlns="http://www.w3.org/2000/svg" xmlns:xlink="http://www.w3.org/1999/xlink" x="0px" y="0px"
	 viewBox="0 0 1080 1080" style="enable-background:new 0 0 1080 1080;" xml:space="preserve">
<style type="text/css">
	.st0{fill:#2A2F33;}
	.st1{fill:#FCFAF6;}
</style>
<g>
	<path class="st0" d="M638,382.7h-9.3h0h-11v8.2c0,0,0.1,0,0.1,0c3.1,0.8,5.4,2.1,7,3.7c1.6,1.6,2.6,3.8,3.1,6.4
		c0.5,2.6,0.8,5.7,0.8,9.3v29.5h0v123.6h-48.8c-4.1,0-8-1.6-10.9-4.5l-15.2-15.2c-2.9-2.9-4.5-6.8-4.5-10.9v-61h-18.6v61
		c0,4.1-1.6,8-4.5,10.9L511,558.8c-2.9,2.9-6.8,4.5-10.9,4.5h-48.8V439.8h0v-29.5c0-3.6,0.3-6.7,0.8-9.3c0.5-2.6,1.6-4.7,3.1-6.4
		c1.6-1.6,3.9-2.9,7-3.7c0,0,0.1,0,0.1,0v-8.2h-11v0H442c-5.1,0-9.3,4.2-9.3,9.3v180.7c0,5.1,4.2,9.3,9.3,9.3h68.3
		c2.5,0,4.8-1,6.6-2.7L540,556l23.1,23.1c1.7,1.7,4.1,2.7,6.6,2.7H638c5.1,0,9.3-4.2,9.3-9.3V391.9
		C647.2,386.8,643.1,382.7,638,382.7z"/>
	<path class="st0" d="M586.6,431.2h-93.1c-5.1,0-9.3,4.2-9.3,9.3v67.2c0,3.3-0.3,6.1-0.7,8.5c-0.5,2.6-1.6,4.7-3.1,6.4
		c-1.6,1.6-4,2.9-7.1,3.7c0,0,0,8.2,0,8.2h20.2c5.1,0,9.3-4.2,9.3-9.3v-75.4h74.6v75.4c0,5.1,4.2,9.3,9.3,9.3h20.2v-8.2
		c-3.1-0.8-5.5-2.1-7.1-3.7c-1.6-1.6-2.6-3.8-3.1-6.4c-0.5-2.4-0.7-5.3-0.7-8.5v-67.2C595.8,435.4,591.7,431.2,586.6,431.2z"/>
	<path class="st0" d="M692.1,358.8l-140.8-95.3c-6.8-4.6-15.7-4.6-22.5,0l-140.8,95.3c-5.5,3.7-8.8,10-8.8,16.6v206.5h9.3v0h9.1
		v-6.8c0,0-0.1,0-0.1,0c-2.5-0.7-4.5-1.7-5.8-3.1c-1.3-1.4-2.2-3.1-2.6-5.3c-0.3-1.7-0.5-3.8-0.6-6.1V375.4c0-3.6,1.8-6.9,4.8-9
		l140.8-95.3c3.7-2.5,8.4-2.5,12.1,0l140.8,95.3c3,2,4.8,5.4,4.8,9v185.2c-0.1,2.3-0.3,4.3-0.6,6.1c-0.4,2.2-1.3,3.9-2.6,5.3
		c-1.3,1.4-3.2,2.4-5.8,3.1c0,0-0.1,0-0.1,0v6.8h9.1v0h9.3V375.4C700.9,368.8,697.6,362.5,692.1,358.8z"/>
</g>
<g>
	<g>
		<g>
			<g>
				<path class="st0" d="M263.6,743.9L243,673.5h12.4l14,50.8l14-50.7l12.4-0.1l14,50.8l14-50.8H336l-20.5,70.3h-11.7l-14.4-50
					l-14.4,50L263.6,743.9L263.6,743.9z"/>
			</g>
		</g>
		<g>
			<g>
				<path class="st0" d="M389.4,732.8v11.1h-45.4v-70.3h45.4v11.1h-33.7v17.3h27.8V713h-27.8v19.9h33.7V732.8z"/>
			</g>
		</g>
		<g>
			<g>
				<path class="st0" d="M397.4,723.1l12.3-1.9c2,8.4,9.2,13.1,17.7,13.1c7.5,0,14.6-3.7,14.6-10.1c0-3.9-2.5-6.5-7.8-8.1l-18.1-5.4
					c-6.2-1.8-15.7-5.5-15.7-18c0-13.5,11.4-20.6,25.7-20.5c14.5,0.1,24.6,7.5,27.7,20.5l-12.6,2.2c-1.5-7.4-8-11.5-15.2-11.8
					c-7.1-0.1-13.2,3.5-13.2,9c0,5.2,5.4,7.2,10.1,8.4l12.6,3.5c6.8,1.9,18.9,5.4,18.9,19.3c0,14.6-13.1,21.9-27.6,21.9
					C411.1,745.4,399.6,736.9,397.4,723.1z"/>
			</g>
		</g>
		<g>
			<g>
				<path class="st0" d="M481.6,743.9v-59.3h-22.7v-11.1h57.3v11.1h-22.7v59.3H481.6z"/>
			</g>
		</g>
		<g>
			<g>
				<path class="st0" d="M555.3,743.9l-20.6-70.3h12.4l14,50.8l14-50.7l12.4-0.1l14,50.8l14-50.8h12.4l-20.5,70.3h-11.7l-14.4-50
					l-14.4,50H555.3z"/>
			</g>
		</g>
		<g>
			<g>
				<path class="st0" d="M629.9,708.8c0-21.8,12.6-36.6,33.7-36.6c21.1,0,33.7,14.8,33.7,36.6c0,21.8-12.6,36.6-33.7,36.6
					S629.9,730.6,629.9,708.8z M684.8,708.8c0-15.4-7.1-25.3-21.2-25.6c-14.1-0.1-21.1,10.1-21.2,25.6c-0.1,15.4,7.1,25.3,21.2,25.6
					C677.7,734.5,684.8,724.1,684.8,708.8z"/>
			</g>
		</g>
		<g>
			<g>
				<path class="st0" d="M703.1,708.8c0-21.8,12.6-36.6,33.7-36.6c21.1,0,33.7,14.8,33.7,36.6c0,21.8-12.6,36.6-33.7,36.6
					S703.1,730.6,703.1,708.8z M758,708.8c0-15.4-7.1-25.3-21.2-25.6c-14.1-0.1-21.1,10.1-21.2,25.6c-0.1,15.4,7.1,25.3,21.2,25.6
					C750.9,734.5,758,724.1,758,708.8z"/>
			</g>
		</g>
		<g>
			<g>
				<path class="st0" d="M780.1,743.9v-70.3h22.4c1.2,0,5.3,0,8.6,0.4c16.7,2.1,25.9,16.8,25.9,34.8c0,17.9-9.2,32.6-25.9,34.8
					c-3.2,0.4-7.4,0.4-8.6,0.4h-22.4V743.9z M792.1,732.8h10.5c2,0,5.4,0,7.8-0.6c10-1.9,14.3-12.5,14.3-23.6
					c0-11.4-4.5-21.7-14.3-23.6c-2.4-0.5-5.8-0.6-7.8-0.6h-10.5V732.8z"/>
			</g>
		</g>
	</g>
	<g>
		<g>
			<g>
				<path class="st0" d="M252.6,794c0-9.7,5.1-16.3,14.4-16.3c7.3,0,11.9,4,13.7,10.3l-3.3,0.8c-1.3-4.9-4.8-8-10.4-8
					c-7.3,0-11,5.4-11.1,13.2c0,7.8,3.7,13.2,11.1,13.2c5.7,0,9.1-3.2,10.4-8l3.3,0.8c-1.8,6.2-6.4,10.3-13.7,10.3
					C257.7,810.2,252.6,803.6,252.6,794z"/>
			</g>
		</g>
		<g>
			<g>
				<path class="st0" d="M292.9,797.8c0-7.4,4.2-12.4,11.1-12.4c7.1,0,11.1,5.1,11.1,12.4c0,7.4-4.1,12.4-11.1,12.4
					C297,810.2,292.9,805.2,292.9,797.8z M311.7,797.8c0-5.7-2.6-9.3-7.8-9.3c-5.3,0-7.7,3.8-7.7,9.3c0,5.7,2.6,9.3,7.7,9.3
					C309.2,807.2,311.7,803.4,311.7,797.8z"/>
			</g>
		</g>
		<g>
			<g>
				<path class="st0" d="M359.7,793.6v16h-3.2v-15.4c0-3.7-2.2-5.8-5.3-5.8c-2.7,0-5.4,1.8-5.4,6.1v15.1h-3.2v-15.2
					c0-3.8-2.1-6-5.4-6c-3.3,0-5.4,2.4-5.4,6.1v15.1h-3.2v-23.4h2.8v2.5c1.4-1.9,3.8-3.1,6.6-3.1c3.1,0,5.5,1.4,6.8,4
					c1.4-2.5,4-4,7.1-4C356.7,785.6,359.7,788.7,359.7,793.6z"/>
			</g>
		</g>
		<g>
			<g>
				<path class="st0" d="M395.1,797.8c0,7.1-3.8,12.4-10.4,12.4c-3.2,0-5.7-1.3-7.3-3.4V820h-3.2v-33.8h2.8v3.2
					c1.8-2.5,4.4-3.9,7.8-3.9C391.2,785.5,395.1,790.9,395.1,797.8z M391.7,797.8c0-5.3-2.4-9.4-7.4-9.4c-4.8,0-7.3,3.9-7.3,9.4
					c0,5.4,2.4,9.4,7.3,9.4S391.7,803.3,391.7,797.8z"/>
			</g>
		</g>
		<g>
			<g>
				<path class="st0" d="M427,795v14.6h-2.8v-3.9c-1.8,2.9-4.9,4.5-9,4.5c-5.3,0-8-3.2-8-7c0-3.9,2.5-5.9,6-6.8
					c3.2-0.7,7.5-1.3,10.7-1.6c0-4.2-1.8-6.2-6.2-6.2c-3.2,0-5.5,1.4-6.4,4.5l-3.1-0.9c1.1-4.2,4.4-6.6,9.5-6.6
					c4.2,0,7.4,1.6,8.6,4.7C426.9,791.6,427,793.4,427,795z M423.6,801.4c0.2-1.2,0.4-2.7,0.4-3.8c-3.1,0.4-6.7,0.7-9.3,1.4
					c-2,0.6-4,1.8-4,4.2c0,2,1.4,4.2,5.2,4.2C420.1,807.5,422.9,804.9,423.6,801.4z"/>
			</g>
		</g>
		<g>
			<g>
				<path class="st0" d="M461.5,796.7v12.8h-3.2v-12c0-5.2-1.9-9.1-6.8-9.1c-4.5,0-7,3.2-7,8.5v12.5h-3.2v-23.4h2.9v3.3
					c1.8-2.6,4.5-3.9,7.9-3.9C459.2,785.6,461.5,791.5,461.5,796.7z"/>
			</g>
		</g>
		<g>
			<g>
				<path class="st0" d="M483.7,805.5l7.1-19.3h3.3L481.4,820h-3.2l3.9-10.5l-9.5-23.4h3.4L483.7,805.5z"/>
			</g>
		</g>
	</g>
	<g>
		<g>
			<g>
				<path class="st0" d="M642.3,807.2h15.5v3.1h-20.4l0-2.9l14.1-12.8c2.4-2.2,3-4.1,3-6.3c0-3.9-3-6.9-6.8-6.9
					c-4,0-6.9,3.2-6.9,6.9h-3.3c0-5.7,4.4-9.9,10.2-9.9c5.7,0,10,4.4,10,10c0,3.9-1.4,6.1-4.4,8.8L642.3,807.2z"/>
			</g>
			<g>
				<path class="st0" d="M663.1,800.8v-12.2c0-5.8,4.4-10.2,10.2-10.2c5.8,0,10.2,4.4,10.2,10.2v12.2c0,5.8-4.4,10.2-10.2,10.2
					C667.5,811,663.1,806.6,663.1,800.8z M680.2,800.9v-12.5c0-3.9-3.1-7-7-7c-3.8,0-7,3.1-7,7v12.5c0,3.8,3.1,7,7,7
					C677.1,807.9,680.2,804.8,680.2,800.9z"/>
			</g>
			<g>
				<path class="st0" d="M695,810.3v-27.7l-5.9,3.5v-3.6l5.9-3.5h3.2v31.3H695z"/>
			</g>
			<g>
				<path class="st0" d="M710.5,807.2H726v3.1h-20.4l0-2.9l14.1-12.8c2.4-2.2,3-4.1,3-6.3c0-3.9-3-6.9-6.8-6.9c-4,0-6.9,3.2-6.9,6.9
					h-3.3c0-5.7,4.4-9.9,10.2-9.9c5.7,0,10,4.4,10,10c0,3.9-1.4,6.1-4.4,8.8L710.5,807.2z"/>
			</g>
		</g>
		<g>
			<g>
				<rect x="743" y="798.2" class="st0" width="93.3" height="2.7"/>
			</g>
			<g>
				<rect x="525.7" y="798.2" class="st0" width="93.3" height="2.7"/>
			</g>
		</g>
	</g>
</g>
</svg>
