<?xml version="1.0" encoding="utf-8"?>
<!-- Generator: Adobe Illustrator 23.0.1, SVG Export Plug-In . SVG Version: 6.00 Build 0)  -->
<svg version="1.1" id="Layer_1" xmlns="http://www.w3.org/2000/svg" xmlns:xlink="http://www.w3.org/1999/xlink" x="0px" y="0px"
	 viewBox="0 0 1080 1080" style="enable-background:new 0 0 1080 1080;" xml:space="preserve">
<style type="text/css">
	.st0{fill:#2A2F33;}
	.st1{fill:#FCFAF6;}
</style>
<g>
	<g>
		<g>
			<g>
				<g>
					<path class="st1" d="M263.6,745.1L243,674.8h12.4l14,50.8l14-50.7l12.4-0.1l14,50.8l14-50.8H336l-20.5,70.3h-11.7l-14.4-50
						l-14.4,50L263.6,745.1L263.6,745.1z"/>
				</g>
			</g>
			<g>
				<g>
					<path class="st1" d="M389.4,734v11.1h-45.4v-70.3h45.4v11.1h-33.7v17.3h27.8v11.1h-27.8v19.9h33.7V734z"/>
				</g>
			</g>
			<g>
				<g>
					<path class="st1" d="M397.4,724.4l12.3-1.9c2,8.4,9.2,13.1,17.7,13.1c7.5,0,14.6-3.7,14.6-10.1c0-3.9-2.5-6.5-7.8-8.1
						l-18.1-5.4c-6.2-1.8-15.7-5.5-15.7-18c0-13.5,11.4-20.6,25.7-20.5c14.5,0.1,24.6,7.5,27.7,20.5l-12.6,2.2
						c-1.5-7.4-8-11.5-15.2-11.8c-7.1-0.1-13.2,3.5-13.2,9c0,5.2,5.4,7.2,10.1,8.4l12.6,3.5c6.8,1.9,18.9,5.4,18.9,19.3
						c0,14.6-13.1,21.9-27.6,21.9C411.1,746.6,399.6,738.2,397.4,724.4z"/>
				</g>
			</g>
			<g>
				<g>
					<path class="st1" d="M481.6,745.1v-59.3h-22.7v-11.1h57.3v11.1h-22.7v59.3H481.6z"/>
				</g>
			</g>
			<g>
				<g>
					<path class="st1" d="M555.3,745.1l-20.6-70.3h12.4l14,50.8l14-50.7l12.4-0.1l14,50.8l14-50.8h12.4l-20.5,70.3h-11.7l-14.4-50
						l-14.4,50H555.3z"/>
				</g>
			</g>
			<g>
				<g>
					<path class="st1" d="M629.9,710c0-21.8,12.6-36.6,33.7-36.6c21.1,0,33.7,14.8,33.7,36.6c0,21.8-12.6,36.6-33.7,36.6
						S629.9,731.8,629.9,710z M684.8,710c0-15.4-7.1-25.3-21.2-25.6c-14.1-0.1-21.1,10.1-21.2,25.6c-0.1,15.4,7.1,25.3,21.2,25.6
						C677.7,735.7,684.8,725.3,684.8,710z"/>
				</g>
			</g>
			<g>
				<g>
					<path class="st1" d="M703.1,710c0-21.8,12.6-36.6,33.7-36.6c21.1,0,33.7,14.8,33.7,36.6c0,21.8-12.6,36.6-33.7,36.6
						S703.1,731.8,703.1,710z M758,710c0-15.4-7.1-25.3-21.2-25.6c-14.1-0.1-21.1,10.1-21.2,25.6c-0.1,15.4,7.1,25.3,21.2,25.6
						C750.9,735.7,758,725.3,758,710z"/>
				</g>
			</g>
			<g>
				<g>
					<path class="st1" d="M780.1,745.1v-70.3h22.4c1.2,0,5.3,0,8.6,0.4c16.7,2.1,25.9,16.8,25.9,34.8s-9.2,32.6-25.9,34.8
						c-3.2,0.4-7.4,0.4-8.6,0.4h-22.4V745.1z M792.1,734h10.5c2,0,5.4,0,7.8-0.6c10-1.9,14.3-12.5,14.3-23.6
						c0-11.4-4.5-21.7-14.3-23.6c-2.4-0.5-5.8-0.6-7.8-0.6h-10.5V734z"/>
				</g>
			</g>
		</g>
		<g>
			<g>
				<g>
					<path class="st1" d="M252.6,795.2c0-9.7,5.1-16.3,14.4-16.3c7.3,0,11.9,4,13.7,10.3l-3.3,0.8c-1.3-4.9-4.8-8-10.4-8
						c-7.3,0-11,5.4-11.1,13.2c0,7.8,3.7,13.2,11.1,13.2c5.7,0,9.1-3.2,10.4-8l3.3,0.8c-1.8,6.2-6.4,10.3-13.7,10.3
						C257.7,811.4,252.6,804.8,252.6,795.2z"/>
				</g>
			</g>
			<g>
				<g>
					<path class="st1" d="M292.9,799.1c0-7.4,4.2-12.4,11.1-12.4c7.1,0,11.1,5.1,11.1,12.4c0,7.4-4.1,12.4-11.1,12.4
						C297,811.4,292.9,806.4,292.9,799.1z M311.7,799.1c0-5.7-2.6-9.3-7.8-9.3c-5.3,0-7.7,3.8-7.7,9.3c0,5.7,2.6,9.3,7.7,9.3
						C309.2,808.4,311.7,804.6,311.7,799.1z"/>
				</g>
			</g>
			<g>
				<g>
					<path class="st1" d="M359.7,794.8v16h-3.2v-15.4c0-3.7-2.2-5.8-5.3-5.8c-2.7,0-5.4,1.8-5.4,6.1v15.1h-3.2v-15.2
						c0-3.8-2.1-6-5.4-6c-3.3,0-5.4,2.4-5.4,6.1v15.1h-3.2v-23.4h2.8v2.5c1.4-1.9,3.8-3.1,6.6-3.1c3.1,0,5.5,1.4,6.8,4
						c1.4-2.5,4-4,7.1-4C356.7,786.8,359.7,789.9,359.7,794.8z"/>
				</g>
			</g>
			<g>
				<g>
					<path class="st1" d="M395.1,799.1c0,7.1-3.8,12.4-10.4,12.4c-3.2,0-5.7-1.3-7.3-3.4v13.2h-3.2v-33.8h2.8v3.2
						c1.8-2.5,4.4-3.9,7.8-3.9C391.2,786.7,395.1,792.1,395.1,799.1z M391.7,799.1c0-5.3-2.4-9.4-7.4-9.4c-4.8,0-7.3,3.9-7.3,9.4
						c0,5.4,2.4,9.4,7.3,9.4S391.7,804.5,391.7,799.1z"/>
				</g>
			</g>
			<g>
				<g>
					<path class="st1" d="M427,796.2v14.6h-2.8V807c-1.8,2.9-4.9,4.5-9,4.5c-5.3,0-8-3.2-8-7c0-3.9,2.5-5.9,6-6.8
						c3.2-0.7,7.5-1.3,10.7-1.6c0-4.2-1.8-6.2-6.2-6.2c-3.2,0-5.5,1.4-6.4,4.5l-3.1-0.9c1.1-4.2,4.4-6.6,9.5-6.6
						c4.2,0,7.4,1.6,8.6,4.7C426.9,792.8,427,794.6,427,796.2z M423.6,802.6c0.2-1.2,0.4-2.7,0.4-3.8c-3.1,0.4-6.7,0.7-9.3,1.4
						c-2,0.6-4,1.8-4,4.2c0,2,1.4,4.2,5.2,4.2C420.1,808.7,422.9,806.1,423.6,802.6z"/>
				</g>
			</g>
			<g>
				<g>
					<path class="st1" d="M461.5,797.9v12.8h-3.2v-12c0-5.2-1.9-9.1-6.8-9.1c-4.5,0-7,3.2-7,8.5v12.5h-3.2v-23.4h2.9v3.3
						c1.8-2.6,4.5-3.9,7.9-3.9C459.2,786.8,461.5,792.7,461.5,797.9z"/>
				</g>
			</g>
			<g>
				<g>
					<path class="st1" d="M483.7,806.7l7.1-19.3h3.3l-12.6,33.8h-3.2l3.9-10.5l-9.5-23.4h3.4L483.7,806.7z"/>
				</g>
			</g>
		</g>
		<g>
			<g>
				<g>
					<path class="st1" d="M642.3,808.4h15.5v3.1h-20.4l0-2.9l14.1-12.8c2.4-2.2,3-4.1,3-6.3c0-3.9-3-6.9-6.8-6.9
						c-4,0-6.9,3.2-6.9,6.9h-3.3c0-5.7,4.4-9.9,10.2-9.9c5.7,0,10,4.4,10,10c0,3.9-1.4,6.1-4.4,8.8L642.3,808.4z"/>
				</g>
				<g>
					<path class="st1" d="M663.1,802v-12.2c0-5.8,4.4-10.2,10.2-10.2c5.8,0,10.2,4.4,10.2,10.2V802c0,5.8-4.4,10.2-10.2,10.2
						C667.5,812.2,663.1,807.8,663.1,802z M680.2,802.1v-12.5c0-3.9-3.1-7-7-7c-3.8,0-7,3.1-7,7v12.5c0,3.8,3.1,7,7,7
						C677.1,809.1,680.2,806,680.2,802.1z"/>
				</g>
				<g>
					<path class="st1" d="M695,811.5v-27.7l-5.9,3.5v-3.6l5.9-3.5h3.2v31.3H695z"/>
				</g>
				<g>
					<path class="st1" d="M710.5,808.4H726v3.1h-20.4l0-2.9l14.1-12.8c2.4-2.2,3-4.1,3-6.3c0-3.9-3-6.9-6.8-6.9
						c-4,0-6.9,3.2-6.9,6.9h-3.3c0-5.7,4.4-9.9,10.2-9.9c5.7,0,10,4.4,10,10c0,3.9-1.4,6.1-4.4,8.8L710.5,808.4z"/>
				</g>
			</g>
			<g>
				<g>
					<rect x="743" y="799.4" class="st1" width="93.3" height="2.7"/>
				</g>
				<g>
					<rect x="525.7" y="799.4" class="st1" width="93.3" height="2.7"/>
				</g>
			</g>
		</g>
	</g>
	<g>
		<g>
			<g>
				<path class="st1" d="M638.7,384.7h-19.3v6.3c2.9,0.9,5.2,2.2,6.9,3.8c1.7,1.8,2.9,4.2,3.5,7c0.6,2.7,0.8,6,0.8,9.7v155.2h-50.2
					c-4.5,0-8.6-1.7-11.8-4.9l-15.3-15.3c-3.1-3.1-4.9-7.3-4.9-11.8v-60.3h-16.4v60.3c0,4.5-1.7,8.6-4.9,11.8l-15.3,15.3
					c-3.1,3.1-7.3,4.9-11.8,4.9h-50.2V411.4c0-3.7,0.2-7,0.8-9.7c0.6-2.8,1.7-5.2,3.5-7c1.6-1.7,3.9-2.9,6.9-3.8v-6.3h-19.3
					c-4.5,0-8.2,3.7-8.2,8.2v181.9c0,4.5,3.7,8.2,8.2,8.2h68.7c2.2,0,4.3-0.9,5.8-2.4l24-24l24,24c1.6,1.6,3.6,2.4,5.8,2.4h68.7
					c4.5,0,8.2-3.7,8.2-8.2V392.9C647,388.4,643.3,384.7,638.7,384.7z"/>
			</g>
			<g>
				<path class="st1" d="M595.3,511.7v-69.9c0-4.5-3.7-8.2-8.2-8.2h-93.8c-4.5,0-8.2,3.7-8.2,8.2v69.9c0,3.4-0.3,6.4-0.8,8.8
					c-0.6,2.8-1.7,5.2-3.5,7c-1.6,1.6-6.9,1.6-6.9,1.6s0,4,0,6.3h19.3c4.5,0,8.2-3.7,8.2-8.2v-77h77.4v77c0,4.5,3.7,8.2,8.2,8.2
					h19.2V529c0,0-5.3,0-6.9-1.6c-1.7-1.8-2.9-4.2-3.5-7C595.5,518.1,595.3,515,595.3,511.7z"/>
			</g>
			<g>
				<path class="st1" d="M692.6,360.5l-141.8-96c-6.5-4.4-14.9-4.4-21.5,0l-141.8,96c-5.3,3.6-8.4,9.4-8.4,15.8v206.7h16.3v-4.8
					c-2.4-0.8-4.3-1.8-5.6-3.3c-1.5-1.5-2.5-3.5-2.9-5.8c-0.3-1.8-0.6-3.9-0.7-6.3V376.4c0-4,2-7.7,5.3-10l141.8-96
					c4-2.8,9.4-2.8,13.5,0l142,96c3.3,2.2,5.3,6,5.3,10v186.4c-0.1,2.5-0.2,4.6-0.7,6.4c-0.4,2.4-1.5,4.4-2.9,5.8
					c-1.3,1.3-3.3,2.5-5.6,3.3v4.8h9.1h7.1V376.4C701.1,370,697.9,364,692.6,360.5z"/>
			</g>
		</g>
	</g>
</g>
</svg>
