<?xml version="1.0" encoding="utf-8"?>
<!-- Generator: Adobe Illustrator 23.0.1, SVG Export Plug-In . SVG Version: 6.00 Build 0)  -->
<svg version="1.1" id="Layer_1" xmlns="http://www.w3.org/2000/svg" xmlns:xlink="http://www.w3.org/1999/xlink" x="0px" y="0px"
	 viewBox="0 0 320 320" style="enable-background:new 0 0 320 320;" xml:space="preserve">
<style type="text/css">
	.st0{fill:#2A2F33;}
	.st1{fill:#FCFAF6;}
</style>
<g>
	<g>
		<g>
			<path class="st1" d="M202.9,143.7h-8.4v2.7c1.3,0.4,2.2,1,3,1.7c0.7,0.8,1.3,1.8,1.5,3c0.2,1.2,0.3,2.6,0.3,4.2v67.5h-21.8
				c-2,0-3.8-0.7-5.1-2.1l-6.6-6.6c-1.4-1.4-2.1-3.2-2.1-5.1v-26.2h-7.1v26.2c0,2-0.7,3.8-2.1,5.1l-6.6,6.6
				c-1.4,1.4-3.2,2.1-5.1,2.1h-21.8v-67.5c0-1.6,0.1-3,0.3-4.2c0.2-1.2,0.7-2.2,1.5-3c0.7-0.7,1.7-1.3,3-1.7v-2.7h-8.4
				c-2,0-3.6,1.6-3.6,3.6v79.1c0,2,1.6,3.6,3.6,3.6h29.9c1,0,1.9-0.4,2.5-1l10.5-10.5l10.5,10.5c0.7,0.7,1.6,1,2.5,1h29.9
				c2,0,3.6-1.6,3.6-3.6v-79.1C206.6,145.3,204.9,143.7,202.9,143.7z"/>
		</g>
		<g>
			<path class="st1" d="M184,198.9v-30.4c0-2-1.6-3.6-3.6-3.6h-40.8c-2,0-3.6,1.6-3.6,3.6v30.4c0,1.5-0.1,2.8-0.3,3.8
				c-0.2,1.2-0.7,2.2-1.5,3c-0.7,0.7-3,0.7-3,0.7s0,1.8,0,2.7h8.4c2,0,3.6-1.6,3.6-3.6v-33.5h33.7v33.5c0,2,1.6,3.6,3.6,3.6h8.4
				v-2.7c0,0-2.3,0-3-0.7c-0.7-0.8-1.3-1.8-1.5-3C184.1,201.7,184,200.4,184,198.9z"/>
		</g>
		<g>
			<path class="st1" d="M226.4,133.2l-61.7-41.8c-2.8-1.9-6.5-1.9-9.3,0l-61.7,41.8c-2.3,1.6-3.7,4.1-3.7,6.9V230h7.1v-2.1
				c-1-0.3-1.9-0.8-2.4-1.4c-0.6-0.6-1.1-1.5-1.3-2.5c-0.1-0.8-0.2-1.7-0.3-2.7v-81.1c0-1.8,0.9-3.4,2.3-4.3L157.1,94
				c1.8-1.2,4.1-1.2,5.9,0l61.7,41.8c1.4,1,2.3,2.6,2.3,4.3v81.1c0,1.1-0.1,2-0.3,2.8c-0.2,1-0.6,1.9-1.3,2.5
				c-0.6,0.6-1.4,1.1-2.4,1.4v2.1h4h3.1v-89.9C230,137.3,228.7,134.7,226.4,133.2z"/>
		</g>
	</g>
</g>
</svg>
