<?xml version="1.0" encoding="utf-8"?>
<!-- Generator: Adobe Illustrator 23.0.1, SVG Export Plug-In . SVG Version: 6.00 Build 0)  -->
<svg version="1.1" id="Layer_1" xmlns="http://www.w3.org/2000/svg" xmlns:xlink="http://www.w3.org/1999/xlink" x="0px" y="0px"
	 viewBox="0 0 320 320" style="enable-background:new 0 0 320 320;" xml:space="preserve">
<style type="text/css">
	.st0{fill:#2A2F33;}
	.st1{fill:#FCFAF6;}
</style>
<g>
	<g>
		<path class="st0" d="M202.6,143.3h-4h0h-4.8v3.6c0,0,0,0,0.1,0c1.3,0.4,2.3,0.9,3,1.6c0.7,0.7,1.1,1.6,1.4,2.8
			c0.2,1.1,0.3,2.5,0.3,4.1v12.8h0v53.8h-21.2c-1.8,0-3.5-0.7-4.8-2l-6.6-6.6c-1.3-1.3-2-3-2-4.8v-26.5H156v26.5
			c0,1.8-0.7,3.5-2,4.8l-6.6,6.6c-1.3,1.3-3,2-4.8,2h-21.2v-53.8h0v-12.8c0-1.6,0.1-2.9,0.3-4.1c0.2-1.1,0.7-2.1,1.4-2.8
			c0.7-0.7,1.7-1.3,3-1.6c0,0,0,0,0.1,0v-3.6h-4.8v0h-4c-2.2,0-4,1.8-4,4V226c0,2.2,1.8,4,4,4h29.7c1.1,0,2.1-0.4,2.9-1.2l10.1-10.1
			l10.1,10.1c0.8,0.8,1.8,1.2,2.9,1.2h29.7c2.2,0,4-1.8,4-4v-78.6C206.6,145.2,204.8,143.3,202.6,143.3z"/>
		<path class="st0" d="M180.2,164.5h-40.5c-2.2,0-4,1.8-4,4v29.2c0,1.4-0.1,2.7-0.3,3.7c-0.2,1.1-0.7,2.1-1.4,2.8
			c-0.7,0.7-1.8,1.3-3.1,1.6c0,0,0,3.6,0,3.6h8.8c2.2,0,4-1.8,4-4v-32.8h32.4v32.8c0,2.2,1.8,4,4,4h8.8v-3.6
			c-1.3-0.4-2.4-0.9-3.1-1.6c-0.7-0.7-1.1-1.6-1.4-2.8c-0.2-1-0.3-2.3-0.3-3.7v-29.2C184.3,166.3,182.5,164.5,180.2,164.5z"/>
		<path class="st0" d="M226.2,133l-61.3-41.5c-3-2-6.8-2-9.8,0L93.8,133c-2.4,1.6-3.8,4.3-3.8,7.2V230h4v0H98v-3c0,0,0,0,0,0
			c-1.1-0.3-1.9-0.8-2.5-1.3c-0.6-0.6-0.9-1.4-1.1-2.3c-0.1-0.8-0.2-1.6-0.3-2.7v-80.5c0-1.6,0.8-3,2.1-3.9l61.3-41.5
			c1.6-1.1,3.7-1.1,5.3,0l61.3,41.5c1.3,0.9,2.1,2.3,2.1,3.9v80.5c0,1-0.1,1.9-0.3,2.7c-0.2,0.9-0.6,1.7-1.1,2.3
			c-0.6,0.6-1.4,1-2.5,1.3c0,0,0,0,0,0v3h3.9v0h4v-89.8C230,137.3,228.6,134.6,226.2,133z"/>
	</g>
</g>
</svg>
